<svg width="204" height="56" viewBox="0 0 204 56" fill="none" xmlns="http://www.w3.org/2000/svg">
<path d="M84.5152 20.1888C84.5152 21.7106 84.8026 23.114 85.3775 24.3991C85.9524 25.6841 86.7302 26.8001 87.7109 27.7469C88.6916 28.6938 89.8244 29.4378 91.1095 29.9789C92.4284 30.4861 93.8149 30.7398 95.269 30.7398C96.7231 30.7398 98.0927 30.4861 99.3778 29.9789C100.697 29.4378 101.846 28.6938 102.827 27.7469C103.842 26.8001 104.636 25.6841 105.211 24.3991C105.786 23.114 106.074 21.7106 106.074 20.1888C106.074 18.667 105.786 17.2636 105.211 15.9786C104.636 14.6935 103.842 13.5776 102.827 12.6307C101.846 11.6838 100.697 10.9567 99.3778 10.4495C98.0927 9.90842 96.7231 9.63788 95.269 9.63788C93.8149 9.63788 92.4284 9.90842 91.1095 10.4495C89.8244 10.9567 88.6916 11.6838 87.7109 12.6307C86.7302 13.5776 85.9524 14.6935 85.3775 15.9786C84.8026 17.2636 84.5152 18.667 84.5152 20.1888ZM74.1164 20.1888C74.1164 17.3482 74.6406 14.7104 75.6889 12.2756C76.7372 9.80697 78.1914 7.65958 80.0513 5.83345C81.9112 4.00733 84.1263 2.58701 86.6964 1.5725C89.3003 0.524167 92.1578 0 95.269 0C98.3464 0 101.187 0.524167 103.791 1.5725C106.395 2.58701 108.627 4.00733 110.487 5.83345C112.38 7.65958 113.852 9.80697 114.9 12.2756C115.948 14.7104 116.472 17.3482 116.472 20.1888C116.472 23.0295 115.948 25.6841 114.9 28.1528C113.852 30.5876 112.38 32.7181 110.487 34.5442C108.627 36.3703 106.395 37.8075 103.791 38.8559C101.187 39.8704 98.3464 40.3776 95.269 40.3776C92.1578 40.3776 89.3003 39.8704 86.6964 38.8559C84.1263 37.8075 81.9112 36.3703 80.0513 34.5442C78.1914 32.7181 76.7372 30.5876 75.6889 28.1528C74.6406 25.6841 74.1164 23.0295 74.1164 20.1888Z" fill="#FF4D00"/>
<path d="M118.676 38.0443V19.5986H131.645V23.6336H123.684V26.804H130.853V30.839H123.684V38.0443H118.676Z" fill="#FFC700"/>
<path d="M133.487 38.0443V19.5986H138.495V34.0093H145.953V38.0443H133.487Z" fill="#FFC700"/>
<path d="M165.128 28.8215C165.128 30.875 164.728 32.6073 163.93 34.0183C163.131 35.4234 162.054 36.4892 160.696 37.2157C159.339 37.9362 157.826 38.2965 156.157 38.2965C154.476 38.2965 152.957 37.9332 151.6 37.2067C150.249 36.4742 149.174 35.4054 148.375 34.0003C147.583 32.5893 147.186 30.863 147.186 28.8215C147.186 26.7679 147.583 25.0387 148.375 23.6336C149.174 22.2226 150.249 21.1568 151.6 20.4362C152.957 19.7097 154.476 19.3464 156.157 19.3464C157.826 19.3464 159.339 19.7097 160.696 20.4362C162.054 21.1568 163.131 22.2226 163.93 23.6336C164.728 25.0387 165.128 26.7679 165.128 28.8215ZM159.976 28.8215C159.976 27.7167 159.829 26.786 159.535 26.0294C159.246 25.2668 158.817 24.6904 158.247 24.3001C157.682 23.9038 156.986 23.7057 156.157 23.7057C155.329 23.7057 154.629 23.9038 154.059 24.3001C153.494 24.6904 153.065 25.2668 152.771 26.0294C152.482 26.786 152.338 27.7167 152.338 28.8215C152.338 29.9263 152.482 30.86 152.771 31.6226C153.065 32.3791 153.494 32.9555 154.059 33.3518C154.629 33.7421 155.329 33.9373 156.157 33.9373C156.986 33.9373 157.682 33.7421 158.247 33.3518C158.817 32.9555 159.246 32.3791 159.535 31.6226C159.829 30.86 159.976 29.9263 159.976 28.8215Z" fill="#FFC700"/>
<path d="M185.314 28.8215C185.314 30.875 184.915 32.6073 184.116 34.0183C183.318 35.4234 182.24 36.4892 180.883 37.2157C179.526 37.9362 178.013 38.2965 176.343 38.2965C174.662 38.2965 173.143 37.9332 171.786 37.2067C170.435 36.4742 169.36 35.4054 168.562 34.0003C167.769 32.5893 167.373 30.863 167.373 28.8215C167.373 26.7679 167.769 25.0387 168.562 23.6336C169.36 22.2226 170.435 21.1568 171.786 20.4362C173.143 19.7097 174.662 19.3464 176.343 19.3464C178.013 19.3464 179.526 19.7097 180.883 20.4362C182.24 21.1568 183.318 22.2226 184.116 23.6336C184.915 25.0387 185.314 26.7679 185.314 28.8215ZM180.162 28.8215C180.162 27.7167 180.015 26.786 179.721 26.0294C179.433 25.2668 179.003 24.6904 178.433 24.3001C177.868 23.9038 177.172 23.7057 176.343 23.7057C175.515 23.7057 174.815 23.9038 174.245 24.3001C173.68 24.6904 173.251 25.2668 172.957 26.0294C172.669 26.786 172.525 27.7167 172.525 28.8215C172.525 29.9263 172.669 30.86 172.957 31.6226C173.251 32.3791 173.68 32.9555 174.245 33.3518C174.815 33.7421 175.515 33.9373 176.343 33.9373C177.172 33.9373 177.868 33.7421 178.433 33.3518C179.003 32.9555 179.433 32.3791 179.721 31.6226C180.015 30.86 180.162 29.9263 180.162 28.8215Z" fill="#FFC700"/>
<path d="M187.631 38.0443V19.5986H195.593C196.962 19.5986 198.16 19.8478 199.187 20.3462C200.213 20.8445 201.012 21.5621 201.582 22.4988C202.153 23.4355 202.438 24.5583 202.438 25.8673C202.438 27.1883 202.144 28.3021 201.555 29.2088C200.973 30.1154 200.153 30.7999 199.097 31.2623C198.046 31.7246 196.818 31.9558 195.413 31.9558H190.657V28.0649H194.404C194.992 28.0649 195.494 27.9929 195.908 27.8488C196.328 27.6986 196.65 27.4615 196.872 27.1372C197.1 26.813 197.214 26.3897 197.214 25.8673C197.214 25.3389 197.1 24.9096 196.872 24.5793C196.65 24.2431 196.328 23.9969 195.908 23.8408C195.494 23.6787 194.992 23.5976 194.404 23.5976H192.639V38.0443H187.631ZM198.439 29.578L203.05 38.0443H197.61L193.107 29.578H198.439Z" fill="#FFC700"/>
<path d="M9.10392 38.0443H2.00665V19.5986H9.03187C10.9293 19.5986 12.5685 19.9679 13.9495 20.7064C15.3366 21.439 16.4053 22.4958 17.1559 23.8768C17.9125 25.2518 18.2908 26.9 18.2908 28.8215C18.2908 30.7429 17.9155 32.3941 17.1649 33.7752C16.4144 35.1502 15.3516 36.207 13.9765 36.9455C12.6015 37.6781 10.9773 38.0443 9.10392 38.0443ZM7.01437 33.7932H8.92379C9.83647 33.7932 10.614 33.6461 11.2565 33.3518C11.905 33.0576 12.3974 32.5502 12.7336 31.8297C13.0759 31.1092 13.247 30.1064 13.247 28.8215C13.247 27.5365 13.0729 26.5338 12.7246 25.8132C12.3824 25.0927 11.878 24.5853 11.2115 24.2911C10.551 23.9969 9.7404 23.8498 8.77968 23.8498H7.01437V33.7932Z" fill="#FFC700"/>
<path d="M20.6077 38.0443V19.5986H33.9016V23.6336H25.6154V26.804H33.2171V30.839H25.6154V34.0093H33.8656V38.0443H20.6077Z" fill="#FFC700"/>
<path d="M53.606 26.5158H48.5262C48.4902 26.0954 48.3941 25.7142 48.238 25.3719C48.0879 25.0297 47.8777 24.7354 47.6075 24.4893C47.3433 24.2371 47.0221 24.0449 46.6438 23.9128C46.2655 23.7747 45.8362 23.7057 45.3559 23.7057C44.5152 23.7057 43.8037 23.9098 43.2213 24.3181C42.6448 24.7264 42.2065 25.3119 41.9063 26.0744C41.6121 26.837 41.465 27.7527 41.465 28.8215C41.465 29.9503 41.6151 30.896 41.9153 31.6586C42.2215 32.4151 42.6629 32.9856 43.2393 33.3699C43.8157 33.7481 44.5092 33.9373 45.3198 33.9373C45.7822 33.9373 46.1965 33.8802 46.5628 33.7661C46.929 33.6461 47.2473 33.4749 47.5175 33.2528C47.7877 33.0306 48.0068 32.7634 48.1749 32.4512C48.3491 32.1329 48.4662 31.7757 48.5262 31.3794L53.606 31.4154C53.5459 32.196 53.3268 32.9916 52.9485 33.8022C52.5702 34.6068 52.0328 35.3513 51.3363 36.0358C50.6458 36.7143 49.7901 37.2607 48.7694 37.6751C47.7486 38.0894 46.5628 38.2965 45.2117 38.2965C43.5185 38.2965 41.9994 37.9332 40.6544 37.2067C39.3154 36.4802 38.2556 35.4114 37.475 34.0003C36.7004 32.5893 36.3131 30.863 36.3131 28.8215C36.3131 26.7679 36.7094 25.0387 37.502 23.6336C38.2946 22.2226 39.3634 21.1568 40.7084 20.4362C42.0534 19.7097 43.5545 19.3464 45.2117 19.3464C46.3766 19.3464 47.4484 19.5056 48.4271 19.8238C49.4059 20.142 50.2645 20.6074 51.003 21.2198C51.7416 21.8263 52.336 22.5738 52.7864 23.4625C53.2367 24.3512 53.5099 25.3689 53.606 26.5158Z" fill="#FFC700"/>
<path d="M55.8779 38.0443V19.5986H60.8856V27.0562H61.1378L66.686 19.5986H72.5223L66.2896 27.8127L72.6664 38.0443H66.686L62.5429 31.1272L60.8856 33.2888V38.0443H55.8779Z" fill="#FFC700"/>
<path d="M0 45.6468V44.0391H7.57463V45.6468H4.75103V53.2619H2.8236V45.6468H0Z" fill="#FF4C00"/>
<path d="M10.9581 49.263V53.2619H9.03965V44.0391H10.904V47.5652H10.9851C11.1412 47.1569 11.3934 46.8372 11.7417 46.606C12.0899 46.3718 12.5267 46.2547 13.0521 46.2547C13.5325 46.2547 13.9513 46.3598 14.3086 46.57C14.6688 46.7771 14.948 47.0759 15.1462 47.4661C15.3473 47.8534 15.4464 48.3173 15.4434 48.8577V53.2619H13.525V49.1999C13.528 48.7736 13.4199 48.4419 13.2007 48.2047C12.9846 47.9675 12.6814 47.8489 12.2911 47.8489C12.0299 47.8489 11.7987 47.9045 11.5976 48.0156C11.3994 48.1266 11.2433 48.2888 11.1292 48.5019C11.0181 48.7121 10.9611 48.9658 10.9581 49.263Z" fill="#FF4C00"/>
<path d="M20.3591 53.397C19.6476 53.397 19.0351 53.2529 18.5218 52.9647C18.0114 52.6735 17.6181 52.2622 17.3419 51.7308C17.0657 51.1964 16.9276 50.5644 16.9276 49.8349C16.9276 49.1234 17.0657 48.4989 17.3419 47.9615C17.6181 47.4241 18.0069 47.0053 18.5083 46.7051C19.0126 46.4049 19.6041 46.2547 20.2826 46.2547C20.7389 46.2547 21.1637 46.3283 21.557 46.4754C21.9533 46.6195 22.2986 46.8372 22.5928 47.1284C22.89 47.4196 23.1212 47.7859 23.2863 48.2272C23.4514 48.6655 23.534 49.1789 23.534 49.7674V50.2942H17.6931V49.1054H21.7281C21.7281 48.8292 21.6681 48.5845 21.548 48.3713C21.4279 48.1582 21.2613 47.9915 21.0481 47.8714C20.838 47.7484 20.5933 47.6868 20.3141 47.6868C20.0229 47.6868 19.7647 47.7544 19.5395 47.8895C19.3174 48.0216 19.1432 48.2002 19.0171 48.4254C18.891 48.6475 18.8265 48.8952 18.8235 49.1684V50.2987C18.8235 50.641 18.8865 50.9367 19.0126 51.1859C19.1417 51.4351 19.3234 51.6272 19.5575 51.7623C19.7917 51.8974 20.0694 51.965 20.3907 51.965C20.6038 51.965 20.799 51.935 20.9761 51.8749C21.1532 51.8149 21.3048 51.7248 21.4309 51.6047C21.557 51.4846 21.6531 51.3375 21.7191 51.1634L23.4935 51.2805C23.4034 51.7068 23.2188 52.0791 22.9395 52.3973C22.6633 52.7125 22.3061 52.9587 21.8677 53.1359C21.4324 53.31 20.9296 53.397 20.3591 53.397Z" fill="#FF4C00"/>
<path d="M36.4018 47.268H34.4293C34.3933 47.0128 34.3198 46.7861 34.2087 46.588C34.0976 46.3868 33.955 46.2157 33.7809 46.0746C33.6067 45.9335 33.4056 45.8254 33.1774 45.7504C32.9522 45.6753 32.7076 45.6378 32.4434 45.6378C31.966 45.6378 31.5502 45.7564 31.1959 45.9935C30.8417 46.2277 30.567 46.57 30.3718 47.0203C30.1767 47.4676 30.0791 48.011 30.0791 48.6505C30.0791 49.308 30.1767 49.8604 30.3718 50.3078C30.57 50.7551 30.8462 51.0928 31.2004 51.321C31.5547 51.5492 31.9645 51.6633 32.4298 51.6633C32.691 51.6633 32.9327 51.6287 33.1549 51.5597C33.3801 51.4906 33.5797 51.3901 33.7538 51.258C33.928 51.1229 34.0721 50.9592 34.1862 50.7671C34.3032 50.575 34.3843 50.3558 34.4293 50.1096L36.4018 50.1186C36.3508 50.5419 36.2232 50.9502 36.019 51.3435C35.8179 51.7338 35.5462 52.0836 35.2039 52.3928C34.8647 52.699 34.4594 52.9422 33.988 53.1223C33.5197 53.2995 32.9898 53.388 32.3983 53.388C31.5757 53.388 30.8402 53.2019 30.1917 52.8296C29.5462 52.4574 29.0358 51.9185 28.6605 51.2129C28.2883 50.5074 28.1021 49.6533 28.1021 48.6505C28.1021 47.6448 28.2913 46.7891 28.6696 46.0836C29.0478 45.3781 29.5612 44.8407 30.2097 44.4714C30.8582 44.0991 31.5877 43.913 32.3983 43.913C32.9327 43.913 33.4281 43.9881 33.8844 44.1382C34.3438 44.2883 34.7506 44.5074 35.1048 44.7957C35.4591 45.0809 35.7473 45.4306 35.9695 45.8449C36.1946 46.2592 36.3388 46.7336 36.4018 47.268Z" fill="#FF4C00"/>
<path d="M41.143 53.397C40.4435 53.397 39.8385 53.2484 39.3282 52.9512C38.8208 52.651 38.429 52.2337 38.1528 51.6993C37.8766 51.1619 37.7385 50.5389 37.7385 49.8304C37.7385 49.1159 37.8766 48.4914 38.1528 47.957C38.429 47.4196 38.8208 47.0023 39.3282 46.7051C39.8385 46.4049 40.4435 46.2547 41.143 46.2547C41.8425 46.2547 42.446 46.4049 42.9534 46.7051C43.4637 47.0023 43.857 47.4196 44.1332 47.957C44.4094 48.4914 44.5475 49.1159 44.5475 49.8304C44.5475 50.5389 44.4094 51.1619 44.1332 51.6993C43.857 52.2337 43.4637 52.651 42.9534 52.9512C42.446 53.2484 41.8425 53.397 41.143 53.397ZM41.152 51.9109C41.4703 51.9109 41.736 51.8209 41.9491 51.6407C42.1623 51.4576 42.3229 51.2084 42.431 50.8932C42.542 50.578 42.5976 50.2192 42.5976 49.8169C42.5976 49.4146 42.542 49.0558 42.431 48.7406C42.3229 48.4254 42.1623 48.1762 41.9491 47.993C41.736 47.8099 41.4703 47.7183 41.152 47.7183C40.8308 47.7183 40.5606 47.8099 40.3414 47.993C40.1253 48.1762 39.9616 48.4254 39.8506 48.7406C39.7425 49.0558 39.6884 49.4146 39.6884 49.8169C39.6884 50.2192 39.7425 50.578 39.8506 50.8932C39.9616 51.2084 40.1253 51.4576 40.3414 51.6407C40.5606 51.8209 40.8308 51.9109 41.152 51.9109Z" fill="#FF4C00"/>
<path d="M46.0486 53.2619V46.3448H47.877V47.5652H47.958C48.1021 47.1599 48.3423 46.8402 48.6785 46.606C49.0148 46.3718 49.4171 46.2547 49.8854 46.2547C50.3598 46.2547 50.7636 46.3733 51.0968 46.6105C51.4301 46.8447 51.6523 47.1629 51.7633 47.5652H51.8354C51.9765 47.1689 52.2317 46.8522 52.601 46.615C52.9732 46.3748 53.4131 46.2547 53.9204 46.2547C54.5659 46.2547 55.0898 46.4604 55.4921 46.8717C55.8974 47.28 56.1001 47.8594 56.1001 48.61V53.2619H54.1861V48.9883C54.1861 48.604 54.0841 48.3158 53.8799 48.1236C53.6758 47.9315 53.4206 47.8354 53.1143 47.8354C52.7661 47.8354 52.4944 47.9465 52.2992 48.1687C52.1041 48.3878 52.0065 48.6775 52.0065 49.0378V53.2619H50.1466V48.9477C50.1466 48.6085 50.0491 48.3383 49.8539 48.1371C49.6618 47.936 49.4081 47.8354 49.0929 47.8354C48.8797 47.8354 48.6876 47.8895 48.5164 47.9975C48.3483 48.1026 48.2147 48.2512 48.1156 48.4434C48.0166 48.6325 47.967 48.8547 47.967 49.1099V53.2619H46.0486Z" fill="#FF4C00"/>
<path d="M57.8691 55.8559V46.3448H59.7605V47.5067H59.846C59.9301 47.3205 60.0517 47.1314 60.2108 46.9393C60.3729 46.7441 60.5831 46.582 60.8413 46.4529C61.1025 46.3208 61.4267 46.2547 61.814 46.2547C62.3184 46.2547 62.7837 46.3868 63.21 46.651C63.6364 46.9122 63.9771 47.307 64.2323 47.8354C64.4875 48.3608 64.6151 49.0198 64.6151 49.8124C64.6151 50.584 64.4905 51.2354 64.2413 51.7668C63.9951 52.2952 63.6589 52.696 63.2326 52.9692C62.8092 53.2394 62.3349 53.3745 61.8095 53.3745C61.4372 53.3745 61.1205 53.313 60.8593 53.1899C60.6011 53.0668 60.3894 52.9122 60.2243 52.7261C60.0592 52.5369 59.9331 52.3463 59.846 52.1541H59.7875V55.8559H57.8691ZM59.747 49.8034C59.747 50.2147 59.804 50.5735 59.9181 50.8797C60.0322 51.1859 60.1973 51.4246 60.4135 51.5957C60.6296 51.7638 60.8923 51.8479 61.2015 51.8479C61.5138 51.8479 61.778 51.7623 61.9941 51.5912C62.2103 51.4171 62.3739 51.1769 62.485 50.8707C62.5991 50.5614 62.6561 50.2057 62.6561 49.8034C62.6561 49.4041 62.6006 49.0528 62.4895 48.7496C62.3784 48.4464 62.2148 48.2092 61.9986 48.0381C61.7825 47.8669 61.5168 47.7814 61.2015 47.7814C60.8893 47.7814 60.6251 47.8639 60.409 48.0291C60.1958 48.1942 60.0322 48.4284 59.9181 48.7316C59.804 49.0348 59.747 49.3921 59.747 49.8034Z" fill="#FF4C00"/>
<path d="M68.0661 44.0391V53.2619H66.1477V44.0391H68.0661Z" fill="#FF4C00"/>
<path d="M73.0088 53.397C72.2973 53.397 71.6848 53.2529 71.1714 52.9647C70.6611 52.6735 70.2678 52.2622 69.9916 51.7308C69.7154 51.1964 69.5773 50.5644 69.5773 49.8349C69.5773 49.1234 69.7154 48.4989 69.9916 47.9615C70.2678 47.4241 70.6566 47.0053 71.1579 46.7051C71.6623 46.4049 72.2538 46.2547 72.9323 46.2547C73.3886 46.2547 73.8134 46.3283 74.2067 46.4754C74.603 46.6195 74.9483 46.8372 75.2425 47.1284C75.5397 47.4196 75.7709 47.7859 75.936 48.2272C76.1011 48.6655 76.1837 49.1789 76.1837 49.7674V50.2942H70.3428V49.1054H74.3778C74.3778 48.8292 74.3178 48.5845 74.1977 48.3713C74.0776 48.1582 73.911 47.9915 73.6978 47.8714C73.4877 47.7484 73.243 47.6868 72.9638 47.6868C72.6726 47.6868 72.4144 47.7544 72.1892 47.8895C71.967 48.0216 71.7929 48.2002 71.6668 48.4254C71.5407 48.6475 71.4762 48.8952 71.4732 49.1684V50.2987C71.4732 50.641 71.5362 50.9367 71.6623 51.1859C71.7914 51.4351 71.973 51.6272 72.2072 51.7623C72.4414 51.8974 72.7191 51.965 73.0403 51.965C73.2535 51.965 73.4486 51.935 73.6258 51.8749C73.8029 51.8149 73.9545 51.7248 74.0806 51.6047C74.2067 51.4846 74.3028 51.3375 74.3688 51.1634L76.1431 51.2805C76.0531 51.7068 75.8684 52.0791 75.5892 52.3973C75.313 52.7125 74.9558 52.9587 74.5174 53.1359C74.0821 53.31 73.5792 53.397 73.0088 53.397Z" fill="#FF4C00"/>
<path d="M81.3685 46.3448V47.7859H77.2029V46.3448H81.3685ZM78.1486 44.6876H80.067V51.1364C80.067 51.3135 80.094 51.4516 80.1481 51.5507C80.2021 51.6467 80.2772 51.7143 80.3732 51.7533C80.4723 51.7924 80.5864 51.8119 80.7155 51.8119C80.8055 51.8119 80.8956 51.8044 80.9857 51.7894C81.0757 51.7713 81.1448 51.7578 81.1928 51.7488L81.4946 53.1764C81.3985 53.2064 81.2634 53.2409 81.0893 53.28C80.9151 53.322 80.7035 53.3475 80.4543 53.3565C79.9919 53.3745 79.5866 53.313 79.2384 53.1719C78.8931 53.0308 78.6244 52.8116 78.4323 52.5144C78.2401 52.2172 78.1456 51.8419 78.1486 51.3886V44.6876Z" fill="#FF4C00"/>
<path d="M85.9498 53.397C85.2383 53.397 84.6258 53.2529 84.1124 52.9647C83.6021 52.6735 83.2088 52.2622 82.9326 51.7308C82.6564 51.1964 82.5183 50.5644 82.5183 49.8349C82.5183 49.1234 82.6564 48.4989 82.9326 47.9615C83.2088 47.4241 83.5976 47.0053 84.0989 46.7051C84.6033 46.4049 85.1947 46.2547 85.8733 46.2547C86.3296 46.2547 86.7544 46.3283 87.1477 46.4754C87.544 46.6195 87.8893 46.8372 88.1835 47.1284C88.4807 47.4196 88.7119 47.7859 88.877 48.2272C89.0421 48.6655 89.1247 49.1789 89.1247 49.7674V50.2942H83.2838V49.1054H87.3188C87.3188 48.8292 87.2588 48.5845 87.1387 48.3713C87.0186 48.1582 86.852 47.9915 86.6388 47.8714C86.4287 47.7484 86.184 47.6868 85.9048 47.6868C85.6136 47.6868 85.3554 47.7544 85.1302 47.8895C84.908 48.0216 84.7339 48.2002 84.6078 48.4254C84.4817 48.6475 84.4172 48.8952 84.4142 49.1684V50.2987C84.4142 50.641 84.4772 50.9367 84.6033 51.1859C84.7324 51.4351 84.914 51.6272 85.1482 51.7623C85.3824 51.8974 85.6601 51.965 85.9813 51.965C86.1945 51.965 86.3896 51.935 86.5668 51.8749C86.7439 51.8149 86.8955 51.7248 87.0216 51.6047C87.1477 51.4846 87.2438 51.3375 87.3098 51.1634L89.0841 51.2805C88.9941 51.7068 88.8094 52.0791 88.5302 52.3973C88.254 52.7125 87.8968 52.9587 87.4584 53.1359C87.0231 53.31 86.5202 53.397 85.9498 53.397Z" fill="#FF4C00"/>
<path d="M93.8549 53.2619V44.0391H99.9615V45.6468H95.8049V47.8444H99.5562V49.4521H95.8049V53.2619H93.8549Z" fill="#FF4C00"/>
<path d="M103.409 44.0391V53.2619H101.491V44.0391H103.409Z" fill="#FF4C00"/>
<path d="M108.325 53.397C107.625 53.397 107.02 53.2484 106.51 52.9512C106.003 52.651 105.611 52.2337 105.335 51.6993C105.058 51.1619 104.92 50.5389 104.92 49.8304C104.92 49.1159 105.058 48.4914 105.335 47.957C105.611 47.4196 106.003 47.0023 106.51 46.7051C107.02 46.4049 107.625 46.2547 108.325 46.2547C109.024 46.2547 109.628 46.4049 110.135 46.7051C110.646 47.0023 111.039 47.4196 111.315 47.957C111.591 48.4914 111.729 49.1159 111.729 49.8304C111.729 50.5389 111.591 51.1619 111.315 51.6993C111.039 52.2337 110.646 52.651 110.135 52.9512C109.628 53.2484 109.024 53.397 108.325 53.397ZM108.334 51.9109C108.652 51.9109 108.918 51.8209 109.131 51.6407C109.344 51.4576 109.505 51.2084 109.613 50.8932C109.724 50.578 109.779 50.2192 109.779 49.8169C109.779 49.4146 109.724 49.0558 109.613 48.7406C109.505 48.4254 109.344 48.1762 109.131 47.993C108.918 47.8099 108.652 47.7183 108.334 47.7183C108.013 47.7183 107.742 47.8099 107.523 47.993C107.307 48.1762 107.143 48.4254 107.032 48.7406C106.924 49.0558 106.87 49.4146 106.87 49.8169C106.87 50.2192 106.924 50.578 107.032 50.8932C107.143 51.2084 107.307 51.4576 107.523 51.6407C107.742 51.8209 108.013 51.9109 108.334 51.9109Z" fill="#FF4C00"/>
<path d="M116.356 53.397C115.656 53.397 115.051 53.2484 114.541 52.9512C114.034 52.651 113.642 52.2337 113.366 51.6993C113.089 51.1619 112.951 50.5389 112.951 49.8304C112.951 49.1159 113.089 48.4914 113.366 47.957C113.642 47.4196 114.034 47.0023 114.541 46.7051C115.051 46.4049 115.656 46.2547 116.356 46.2547C117.055 46.2547 117.659 46.4049 118.166 46.7051C118.676 47.0023 119.07 47.4196 119.346 47.957C119.622 48.4914 119.76 49.1159 119.76 49.8304C119.76 50.5389 119.622 51.1619 119.346 51.6993C119.07 52.2337 118.676 52.651 118.166 52.9512C117.659 53.2484 117.055 53.397 116.356 53.397ZM116.365 51.9109C116.683 51.9109 116.949 51.8209 117.162 51.6407C117.375 51.4576 117.536 51.2084 117.644 50.8932C117.755 50.578 117.81 50.2192 117.81 49.8169C117.81 49.4146 117.755 49.0558 117.644 48.7406C117.536 48.4254 117.375 48.1762 117.162 47.993C116.949 47.8099 116.683 47.7183 116.365 47.7183C116.043 47.7183 115.773 47.8099 115.554 47.993C115.338 48.1762 115.174 48.4254 115.063 48.7406C114.955 49.0558 114.901 49.4146 114.901 49.8169C114.901 50.2192 114.955 50.578 115.063 50.8932C115.174 51.2084 115.338 51.4576 115.554 51.6407C115.773 51.8209 116.043 51.9109 116.365 51.9109Z" fill="#FF4C00"/>
<path d="M121.261 53.2619V46.3448H123.121V47.5517H123.193C123.319 47.1224 123.531 46.7981 123.828 46.579C124.125 46.3568 124.468 46.2457 124.855 46.2457C124.951 46.2457 125.055 46.2517 125.166 46.2638C125.277 46.2758 125.374 46.2923 125.458 46.3133V48.0156C125.368 47.9885 125.244 47.9645 125.085 47.9435C124.926 47.9225 124.78 47.912 124.648 47.912C124.366 47.912 124.113 47.9735 123.891 48.0966C123.672 48.2167 123.498 48.3848 123.369 48.601C123.243 48.8171 123.18 49.0663 123.18 49.3485V53.2619H121.261Z" fill="#FF4C00"/>
<path d="M126.704 53.2619V46.3448H128.622V53.2619H126.704ZM127.668 45.4531C127.382 45.4531 127.138 45.3586 126.934 45.1694C126.732 44.9773 126.632 44.7476 126.632 44.4804C126.632 44.2162 126.732 43.9896 126.934 43.8004C127.138 43.6083 127.382 43.5122 127.668 43.5122C127.953 43.5122 128.196 43.6083 128.397 43.8004C128.601 43.9896 128.703 44.2162 128.703 44.4804C128.703 44.7476 128.601 44.9773 128.397 45.1694C128.196 45.3586 127.953 45.4531 127.668 45.4531Z" fill="#FF4C00"/>
<path d="M132.331 49.263V53.2619H130.413V46.3448H132.241V47.5652H132.322C132.475 47.1629 132.732 46.8447 133.092 46.6105C133.452 46.3733 133.889 46.2547 134.403 46.2547C134.883 46.2547 135.302 46.3598 135.659 46.57C136.016 46.7801 136.294 47.0804 136.492 47.4706C136.69 47.8579 136.789 48.3203 136.789 48.8577V53.2619H134.871V49.1999C134.874 48.7766 134.766 48.4464 134.547 48.2092C134.328 47.969 134.026 47.8489 133.642 47.8489C133.383 47.8489 133.155 47.9045 132.957 48.0156C132.762 48.1266 132.609 48.2888 132.498 48.5019C132.39 48.7121 132.334 48.9658 132.331 49.263Z" fill="#FF4C00"/>
<path d="M141.671 56C141.05 56 140.517 55.9144 140.073 55.7433C139.631 55.5752 139.28 55.3455 139.019 55.0543C138.758 54.7631 138.588 54.4358 138.51 54.0726L140.284 53.8339C140.338 53.972 140.424 54.1011 140.541 54.2212C140.658 54.3413 140.813 54.4373 141.005 54.5094C141.2 54.5844 141.437 54.622 141.716 54.622C142.134 54.622 142.478 54.5199 142.748 54.3157C143.021 54.1146 143.158 53.7768 143.158 53.3025V52.037H143.076C142.992 52.2292 142.866 52.4108 142.698 52.5819C142.53 52.7531 142.314 52.8927 142.05 53.0008C141.785 53.1088 141.47 53.1629 141.104 53.1629C140.585 53.1629 140.112 53.0428 139.685 52.8026C139.262 52.5594 138.924 52.1887 138.672 51.6903C138.423 51.1889 138.298 50.5554 138.298 49.7899C138.298 49.0063 138.426 48.3518 138.681 47.8264C138.936 47.301 139.276 46.9077 139.699 46.6465C140.125 46.3853 140.592 46.2547 141.099 46.2547C141.487 46.2547 141.811 46.3208 142.072 46.4529C142.333 46.582 142.544 46.7441 142.703 46.9393C142.865 47.1314 142.989 47.3205 143.076 47.5067H143.149V46.3448H145.053V53.3295C145.053 53.9179 144.909 54.4103 144.621 54.8066C144.333 55.2029 143.934 55.5001 143.423 55.6983C142.916 55.8994 142.332 56 141.671 56ZM141.712 51.7218C142.021 51.7218 142.282 51.6452 142.496 51.4921C142.712 51.336 142.877 51.1139 142.991 50.8256C143.108 50.5344 143.167 50.1862 143.167 49.7809C143.167 49.3756 143.109 49.0243 142.995 48.7271C142.881 48.4269 142.716 48.1942 142.5 48.0291C142.284 47.8639 142.021 47.7814 141.712 47.7814C141.397 47.7814 141.131 47.8669 140.915 48.0381C140.699 48.2062 140.535 48.4404 140.424 48.7406C140.313 49.0408 140.257 49.3876 140.257 49.7809C140.257 50.1802 140.313 50.5254 140.424 50.8166C140.538 51.1048 140.702 51.3285 140.915 51.4876C141.131 51.6437 141.397 51.7218 141.712 51.7218Z" fill="#FF4C00"/>
<path d="M155.062 46.6916C155.026 46.3283 154.871 46.0461 154.598 45.8449C154.325 45.6438 153.954 45.5432 153.485 45.5432C153.167 45.5432 152.898 45.5882 152.679 45.6783C152.46 45.7654 152.292 45.887 152.175 46.0431C152.061 46.1992 152.004 46.3763 152.004 46.5745C151.998 46.7396 152.032 46.8837 152.107 47.0068C152.185 47.1299 152.292 47.2365 152.427 47.3265C152.562 47.4136 152.718 47.4902 152.896 47.5562C153.073 47.6193 153.262 47.6733 153.463 47.7183L154.292 47.9165C154.694 48.0065 155.063 48.1266 155.399 48.2767C155.736 48.4269 156.027 48.6115 156.273 48.8307C156.519 49.0498 156.71 49.308 156.845 49.6052C156.983 49.9025 157.054 50.2432 157.057 50.6275C157.054 51.1919 156.91 51.6813 156.624 52.0956C156.342 52.5069 155.934 52.8266 155.399 53.0548C154.868 53.28 154.227 53.3925 153.476 53.3925C152.732 53.3925 152.083 53.2785 151.531 53.0503C150.982 52.8221 150.552 52.4844 150.243 52.037C149.937 51.5867 149.776 51.0298 149.761 50.3663H151.648C151.669 50.6755 151.758 50.9337 151.914 51.1409C152.073 51.345 152.285 51.4996 152.549 51.6047C152.816 51.7068 153.118 51.7578 153.454 51.7578C153.784 51.7578 154.071 51.7098 154.314 51.6137C154.56 51.5177 154.751 51.3841 154.886 51.2129C155.021 51.0418 155.089 50.8452 155.089 50.623C155.089 50.4158 155.027 50.2417 154.904 50.1006C154.784 49.9595 154.607 49.8394 154.373 49.7403C154.141 49.6413 153.858 49.5512 153.521 49.4701L152.517 49.2179C151.74 49.0288 151.126 48.7331 150.675 48.3308C150.225 47.9285 150.001 47.3866 150.004 46.7051C150.001 46.1467 150.15 45.6588 150.45 45.2415C150.753 44.8242 151.169 44.4984 151.698 44.2643C152.226 44.0301 152.826 43.913 153.499 43.913C154.183 43.913 154.781 44.0301 155.291 44.2643C155.805 44.4984 156.204 44.8242 156.489 45.2415C156.774 45.6588 156.922 46.1422 156.931 46.6916H155.062Z" fill="#FF4C00"/>
<path d="M161.711 53.397C161.012 53.397 160.407 53.2484 159.896 52.9512C159.389 52.651 158.997 52.2337 158.721 51.6993C158.445 51.1619 158.307 50.5389 158.307 49.8304C158.307 49.1159 158.445 48.4914 158.721 47.957C158.997 47.4196 159.389 47.0023 159.896 46.7051C160.407 46.4049 161.012 46.2547 161.711 46.2547C162.411 46.2547 163.014 46.4049 163.521 46.7051C164.032 47.0023 164.425 47.4196 164.701 47.957C164.978 48.4914 165.116 49.1159 165.116 49.8304C165.116 50.5389 164.978 51.1619 164.701 51.6993C164.425 52.2337 164.032 52.651 163.521 52.9512C163.014 53.2484 162.411 53.397 161.711 53.397ZM161.72 51.9109C162.038 51.9109 162.304 51.8209 162.517 51.6407C162.73 51.4576 162.891 51.2084 162.999 50.8932C163.11 50.578 163.166 50.2192 163.166 49.8169C163.166 49.4146 163.11 49.0558 162.999 48.7406C162.891 48.4254 162.73 48.1762 162.517 47.993C162.304 47.8099 162.038 47.7183 161.72 47.7183C161.399 47.7183 161.129 47.8099 160.91 47.993C160.693 48.1762 160.53 48.4254 160.419 48.7406C160.311 49.0558 160.257 49.4146 160.257 49.8169C160.257 50.2192 160.311 50.578 160.419 50.8932C160.53 51.2084 160.693 51.4576 160.91 51.6407C161.129 51.8209 161.399 51.9109 161.72 51.9109Z" fill="#FF4C00"/>
<path d="M168.535 44.0391V53.2619H166.617V44.0391H168.535Z" fill="#FF4C00"/>
<path d="M174.761 50.3168V46.3448H176.68V53.2619H174.838V52.0055H174.766C174.61 52.4108 174.35 52.7366 173.987 52.9827C173.626 53.2289 173.187 53.352 172.667 53.352C172.205 53.352 171.798 53.2469 171.447 53.0368C171.096 52.8266 170.821 52.5279 170.623 52.1406C170.428 51.7533 170.329 51.2895 170.326 50.7491V46.3448H172.244V50.4068C172.247 50.8151 172.357 51.1379 172.573 51.375C172.789 51.6122 173.079 51.7308 173.442 51.7308C173.673 51.7308 173.889 51.6783 174.09 51.5732C174.291 51.4651 174.454 51.306 174.577 51.0958C174.703 50.8857 174.764 50.626 174.761 50.3168Z" fill="#FF4C00"/>
<path d="M182.147 46.3448V47.7859H177.982V46.3448H182.147ZM178.927 44.6876H180.846V51.1364C180.846 51.3135 180.873 51.4516 180.927 51.5507C180.981 51.6467 181.056 51.7143 181.152 51.7533C181.251 51.7924 181.365 51.8119 181.494 51.8119C181.584 51.8119 181.674 51.8044 181.764 51.7894C181.854 51.7713 181.923 51.7578 181.971 51.7488L182.273 53.1764C182.177 53.2064 182.042 53.2409 181.868 53.28C181.694 53.322 181.482 53.3475 181.233 53.3565C180.771 53.3745 180.365 53.313 180.017 53.1719C179.672 53.0308 179.403 52.8116 179.211 52.5144C179.019 52.2172 178.924 51.8419 178.927 51.3886V44.6876Z" fill="#FF4C00"/>
<path d="M183.65 53.2619V46.3448H185.569V53.2619H183.65ZM184.614 45.4531C184.329 45.4531 184.084 45.3586 183.88 45.1694C183.679 44.9773 183.578 44.7476 183.578 44.4804C183.578 44.2162 183.679 43.9896 183.88 43.8004C184.084 43.6083 184.329 43.5122 184.614 43.5122C184.899 43.5122 185.143 43.6083 185.344 43.8004C185.548 43.9896 185.65 44.2162 185.65 44.4804C185.65 44.7476 185.548 44.9773 185.344 45.1694C185.143 45.3586 184.899 45.4531 184.614 45.4531Z" fill="#FF4C00"/>
<path d="M190.485 53.397C189.785 53.397 189.18 53.2484 188.67 52.9512C188.162 52.651 187.771 52.2337 187.494 51.6993C187.218 51.1619 187.08 50.5389 187.08 49.8304C187.08 49.1159 187.218 48.4914 187.494 47.957C187.771 47.4196 188.162 47.0023 188.67 46.7051C189.18 46.4049 189.785 46.2547 190.485 46.2547C191.184 46.2547 191.788 46.4049 192.295 46.7051C192.805 47.0023 193.199 47.4196 193.475 47.957C193.751 48.4914 193.889 49.1159 193.889 49.8304C193.889 50.5389 193.751 51.1619 193.475 51.6993C193.199 52.2337 192.805 52.651 192.295 52.9512C191.788 53.2484 191.184 53.397 190.485 53.397ZM190.494 51.9109C190.812 51.9109 191.078 51.8209 191.291 51.6407C191.504 51.4576 191.664 51.2084 191.773 50.8932C191.884 50.578 191.939 50.2192 191.939 49.8169C191.939 49.4146 191.884 49.0558 191.773 48.7406C191.664 48.4254 191.504 48.1762 191.291 47.993C191.078 47.8099 190.812 47.7183 190.494 47.7183C190.172 47.7183 189.902 47.8099 189.683 47.993C189.467 48.1762 189.303 48.4254 189.192 48.7406C189.084 49.0558 189.03 49.4146 189.03 49.8169C189.03 50.2192 189.084 50.578 189.192 50.8932C189.303 51.2084 189.467 51.4576 189.683 51.6407C189.902 51.8209 190.172 51.9109 190.494 51.9109Z" fill="#FF4C00"/>
<path d="M197.309 49.263V53.2619H195.39V46.3448H197.219V47.5652H197.3C197.453 47.1629 197.709 46.8447 198.07 46.6105C198.43 46.3733 198.867 46.2547 199.38 46.2547C199.86 46.2547 200.279 46.3598 200.637 46.57C200.994 46.7801 201.271 47.0804 201.47 47.4706C201.668 47.8579 201.767 48.3203 201.767 48.8577V53.2619H199.848V49.1999C199.851 48.7766 199.743 48.4464 199.524 48.2092C199.305 47.969 199.003 47.8489 198.619 47.8489C198.361 47.8489 198.133 47.9045 197.935 48.0156C197.739 48.1266 197.586 48.2888 197.475 48.5019C197.367 48.7121 197.312 48.9658 197.309 49.263Z" fill="#FF4C00"/>
</svg>
