<svg width="131" height="93" viewBox="0 0 131 93" fill="none" xmlns="http://www.w3.org/2000/svg">
<path d="M102.023 93C92.5653 93 85.321 89.8284 80.2903 83.4851C75.2596 77.1419 72.7442 69.1617 72.7442 59.5446C72.7442 48.6997 74.8571 39.3895 79.083 31.6139C83.3088 23.6337 88.5407 17.0858 94.7788 11.9703C101.017 6.65017 106.853 2.66007 112.286 0L116.813 6.1386C111.783 8.38944 106.953 11.4587 102.325 15.3465C97.6966 19.2343 93.8733 23.429 90.8548 27.9307C88.0376 32.4323 86.629 36.6271 86.629 40.5148C86.629 41.9472 86.9309 42.9703 87.5346 43.5841C88.3395 44.198 89.1444 44.505 89.9493 44.505C91.1567 44.505 92.9678 43.7888 95.3825 42.3564C97.7972 40.7195 101.419 39.901 106.249 39.901C113.292 39.901 119.128 42.1518 123.756 46.6534C128.585 50.9505 131 57.1914 131 65.3763C131 72.9472 128.485 79.495 123.454 85.0198C118.624 90.3399 111.481 93 102.023 93ZM29.2788 93C19.821 93 12.5768 89.8284 7.54608 83.4851C2.51536 77.1419 0 69.1617 0 59.5446C0 48.6997 2.1129 39.3895 6.33871 31.6139C10.5645 23.6337 15.7965 17.0858 22.0346 11.9703C28.2727 6.65017 34.1083 2.66007 39.5415 0L44.0691 6.1386C39.0384 8.38944 34.2089 11.4587 29.5806 15.3465C24.9524 19.2343 21.129 23.429 18.1106 27.9307C15.2934 32.4323 13.8848 36.6271 13.8848 40.5148C13.8848 41.9472 14.1866 42.9703 14.7903 43.5841C15.5952 44.198 16.4002 44.505 17.2051 44.505C18.4124 44.505 20.2235 43.7888 22.6382 42.3564C25.053 40.7195 28.6751 39.901 33.5046 39.901C40.5476 39.901 46.3833 42.1518 51.0115 46.6534C55.841 50.9505 58.2558 57.1914 58.2558 65.3763C58.2558 72.9472 55.7404 79.495 50.7097 85.0198C45.8802 90.3399 38.7366 93 29.2788 93Z" fill="#EFEFEF"/>
</svg>
